<?xml version="1.0" encoding="UTF-8"?>
<svg id="Layer_2" data-name="Layer 2" xmlns="http://www.w3.org/2000/svg" viewBox="0 0 1187.06 867.62">
  <defs>
    <style>
      .cls-1 { fill: #ffffff; }
    </style>
  </defs>
  <g id="Layer_1-2" data-name="Layer 1">
    <g>
      <path class="cls-1" d="M589.16,274.01c2-.22,3.96-.33,5.84-.33,11.5,0,21.04,4.26,27.61,12.32,7.03,8.64,10.59,21.48,10.56,38.18,0,6.31-.53,12.45-1.21,17.78,16.64-8.61,45.51-25.85,49.64-61.19,1.68-14.32-.1-20.23-7.02-28.48-10.35-12.33-30.88-14.92-46.28-14.92-7.44,0-15.49.58-23.92,1.73-7.19.98-24.65-1-60.75,37.22-23.22,24.59-44.44,51.77-52.49,62.31-2.24,2.94-5.63,4.62-9.31,4.62-6.49,0-11.76-5.27-11.76-11.75v-14.97c0-24.71-3.65-44.73-10.86-59.51-5.66-11.61-12.11-16.88-15.46-18.99-.83-.52-1.81-.8-2.84-.8h-61.32c8.46,10.77,18.12,28.68,23.65,57.59.5,2.61.75,5.32.75,8.04l-.14,396.38c0,.43.2.72.37.89s.46.37.89.37h55.94c.44,0,.73-.2.9-.37.24-.24.36-.54.36-.88-.26-79.99.02-268.69,8.24-293.35,8.36-25.09,61.33-125.53,118.62-131.89Z"/>
      <path class="cls-1" d="M843.76,828.77c-9.89-2.89-24.95-4-44.03-5.41-12.4-.91-26.46-1.95-42.23-3.71-55.43-7.73-75.22-43.32-85.19-71.81-9.31-26.6-13.28-56.58-4.41-84.42,14.36-45.07,51.94-161.45,90.65-268.35l.08-.21c20.7-49.15,33.1-91.84,36.87-126.89,2.13-19.8,1.73-23.2,1.13-28.34-.07-.56-.13-1.15-.2-1.78-.3-2.92-2.8-5.11-5.82-5.11h-.01l-60.39.13c-2.28,0-4.38,1.35-5.33,3.43-.95,2.07-.6,4.53.88,6.26,3.66,4.26,7.63,9.2,11.79,14.68,9.5,12.54,23.87,31.5,9.76,94.98-5.41,24.35-75.66,197.53-78.65,204.89l-3.57,8.78-100.44-171.45c-1.05-1.78-2.98-2.89-5.05-2.9l-56.81-.12h-.02c-2.09,0-4.03,1.12-5.08,2.93-1.05,1.81-1.05,4.06,0,5.88,24.47,42.39,105.44,182.98,120.23,212.55,11.12,22.24,21.05,67.7,27.43,101.92,12.32,66.14,58.52,121.25,120.58,143.81,12.37,4.5,24.43,7.46,34.87,8.56l.19.02c5.14.33,9.93.5,14.24.5,34.19,0,41.05-10.06,41.05-26.28,0-5.34-2.13-9.52-12.51-12.56Z"/>
      <path class="cls-1" d="M1186.73,697.53l-208.24-326.9c-2.65-4.15-1.92-9.56,1.74-12.86,5.51-4.96,52.02-52.18,96.13-67.79,18.84-6.67,41.45-2.61,58.05-3.79,12.26-.88,24.04-3.08,33.48-6.79,6.37-2.5,13.79-8.66,15.99-14.37,2.46-6.36,1.05-10.11-2.1-15.98-2.79-5.19-8.68-12.1-27.55-12.1-25.86,0-65.21,1.8-103.29,15.12-45.22,15.81-86.31,52.42-122.14,108.81-28.85,45.41-45.11,89.99-49.41,102.57-1.39,4.07-5.21,6.8-9.5,6.8-2.71,0-5.35-1.11-7.23-3.06-1.9-1.96-2.9-4.56-2.82-7.3.21-6.84,0-21.43-.27-39.91-.97-67.13-2.78-192.08,10.56-257.41,8.9-43.61,21.97-77.24,38.82-99.97,9.32-12.56,19.45-21.31,30.13-25.99l.33-.14c1.32-.62,2.8-.96,4.27-.96.64,0,1.28.06,1.91.18,2.78.54,27.8,5.27,53.25,5.27,22.47,0,38.47-3.82,45.06-10.76,2.61-2.74,3.75-6.03,3.58-10.31-1.13-8.65-5.28-19.88-27.23-19.88h0c-26.99,0-69.93,17.78-104.47,43.25-77.34,60.1-89.35,230.1-90.47,249.29-.07,1.25-.1,2.46-.09,3.7l3.74,402.31c0,1.08.9,1.96,1.97,1.96h29.3c.7,0,1.16-.33,1.42-.6.26-.27.57-.75.55-1.44-1.21-33.55-3.58-115.1.62-147.64,5.02-38.89,52.7-109.53,62.21-123.3,1.87-2.71,4.96-4.33,8.26-4.33,3.31,0,6.4,1.63,8.28,4.35l187.68,272.11c.37.53.97.85,1.62.85l54.19.05c.78,0,1.36-.34,1.73-1.02.37-.68.35-1.36-.07-2.01Z"/>
      <path class="cls-1" d="M349.83,636.33v-284.92c0-17.24-2.49-33.19-7.41-47.39-4.72-13.6-12.72-25.29-23.77-34.73-11.31-9.65-26.74-17.32-45.85-22.8-19.56-5.61-44.23-8.45-73.31-8.45-22.56,0-44.64,2.79-65.62,8.28-20.82,5.46-39.65,13.37-55.96,23.53-16.07,10.01-29.57,22.51-40.12,37.12-8.44,11.71-14.24,24.88-17.28,39.25h66.03c2.13-10.99,5.49-21.58,10.04-31.59,5.65-12.43,13.04-23.43,21.97-32.68,8.95-9.28,19.45-16.8,31.2-22.36,11.96-5.65,25.2-8.51,39.37-8.51s27.36,2.09,38.1,6.22c11.37,4.38,20.83,11.8,28.13,22.04,6.99,9.82,12.18,22.69,15.42,38.25,3.12,14.98,4.69,33.48,4.69,54.99v35.72l-6.66,1.67c-20.3,5.08-41.47,10.67-62.9,16.62-21.35,5.94-42.34,12.76-62.38,20.27-19.93,7.47-38.98,16.1-56.61,25.65-17.32,9.38-32.74,20.19-45.82,32.13-12.79,11.67-22.98,25.12-30.27,39.98-7.18,14.63-10.82,31.38-10.82,49.77,0,15.06,2.6,29.3,7.73,42.31,5.1,12.96,12.34,24.26,21.52,33.57,9.17,9.31,20.6,16.75,33.98,22.13,13.46,5.41,28.81,8.16,45.63,8.16,18.58,0,35.09-2.15,49.07-6.38,14.16-4.29,27.19-9.86,38.71-16.55,11.68-6.77,22.63-14.44,32.56-22.79,10.48-8.8,21.3-17.4,32.17-25.55l14.08-10.56v17.59c0,12.29,3.47,22.87,10.62,32.35,6.98,9.27,15.57,16.66,25.54,21.97h62.4c-3.59-3.49-6.94-7.29-10.02-11.38-9.4-12.46-14.17-26.91-14.17-42.94ZM275.46,607.3l-3.44,2.64c-9.03,6.93-18.1,13.54-26.96,19.65-8.95,6.17-18.03,11.73-26.99,16.52-9.2,4.92-18.87,8.87-28.74,11.73-10.08,2.92-20.76,4.41-31.76,4.41s-21.61-2.5-31.78-7.42c-10-4.83-18.95-11.58-26.6-20.06-7.55-8.36-13.7-18.16-18.27-29.1-4.64-11.08-6.99-23.07-6.99-35.62s3.09-24.14,9.19-35.32c5.82-10.67,13.79-20.93,23.7-30.51,9.68-9.37,21.08-18.24,33.86-26.35,12.53-7.95,25.84-15.45,39.55-22.3,13.73-6.86,27.95-13.13,42.26-18.61,14.16-5.43,28.13-10.33,41.5-14.59l11.47-3.65v188.59Z"/>
    </g>
  </g>
</svg>

